<svg width="30" height="30" viewBox="0 0 30 30" fill="none" xmlns="http://www.w3.org/2000/svg">
<circle cx="15" cy="15" r="15" fill="black"/>
<path d="M20.7786 7.20312H9.82133C8.70503 7.20312 7.80005 8.10807 7.80005 9.22441V20.1818C7.80005 21.2981 8.70499 22.2031 9.82133 22.2031H15.2254L15.2346 16.8429H13.8421C13.6611 16.8429 13.5142 16.6966 13.5135 16.5156L13.5068 14.7878C13.5061 14.6058 13.6535 14.4579 13.8354 14.4579H15.2255V12.7884C15.2255 10.851 16.4087 9.79606 18.137 9.79606H19.5553C19.7367 9.79606 19.8838 9.94316 19.8838 10.1247V11.5815C19.8838 11.763 19.7368 11.91 19.5554 11.9101L18.6851 11.9105C17.7452 11.9105 17.5632 12.3572 17.5632 13.0126V14.458H19.6285C19.8253 14.458 19.978 14.6298 19.9548 14.8252L19.75 16.553C19.7304 16.7184 19.5902 16.843 19.4237 16.843H17.5724L17.5632 22.2031H20.7787C21.895 22.2031 22.7999 21.2982 22.7999 20.1819V9.22441C22.7999 8.10807 21.895 7.20312 20.7786 7.20312Z" fill="white"/>
</svg>
