<svg width="30" height="30" viewBox="0 0 30 30" fill="none" xmlns="http://www.w3.org/2000/svg">
<circle cx="15" cy="15" r="15" fill="black"/>
<path d="M18.6377 6H11.3623C8.40551 6 6 8.40551 6 11.3623V18.6377C6 21.5945 8.40551 24 11.3623 24H18.6377C21.5945 24 24 21.5945 24 18.6377V11.3623C24 8.40551 21.5945 6 18.6377 6ZM22.1892 18.6377C22.1892 20.5991 20.5991 22.1892 18.6377 22.1892H11.3623C9.40088 22.1892 7.8108 20.5991 7.8108 18.6377V11.3623C7.8108 9.40084 9.40088 7.8108 11.3623 7.8108H18.6377C20.5991 7.8108 22.1892 9.40084 22.1892 11.3623V18.6377Z" fill="white"/>
<path d="M14.9999 10.3438C12.4329 10.3438 10.3445 12.4322 10.3445 14.9992C10.3445 17.5661 12.4329 19.6546 14.9999 19.6546C17.5669 19.6546 19.6554 17.5662 19.6554 14.9992C19.6554 12.4321 17.5669 10.3438 14.9999 10.3438ZM14.9999 17.8438C13.4289 17.8438 12.1553 16.5703 12.1553 14.9992C12.1553 13.4281 13.4289 12.1545 14.9999 12.1545C16.571 12.1545 17.8446 13.4281 17.8446 14.9992C17.8446 16.5702 16.571 17.8438 14.9999 17.8438Z" fill="white"/>
<path d="M19.6644 11.4967C20.2805 11.4967 20.7799 10.9973 20.7799 10.3812C20.7799 9.76507 20.2805 9.26562 19.6644 9.26562C19.0483 9.26562 18.5488 9.76507 18.5488 10.3812C18.5488 10.9973 19.0483 11.4967 19.6644 11.4967Z" fill="white"/>
</svg>
