<svg width="30" height="30" viewBox="0 0 30 30" fill="none" xmlns="http://www.w3.org/2000/svg">
<circle cx="15" cy="15" r="15" fill="black"/>
<path d="M21.4432 7.20312H9.15692C8.40755 7.20312 7.80005 7.81063 7.80005 8.56V20.8462C7.80005 21.5956 8.40755 22.2031 9.15692 22.2031H21.4431C22.1925 22.2031 22.8 21.5956 22.8 20.8462V8.56C22.8 7.81063 22.1925 7.20312 21.4432 7.20312ZM12.4417 20.1551C12.4417 20.3732 12.2649 20.55 12.0468 20.55H10.366C10.1479 20.55 9.97108 20.3732 9.97108 20.1551V13.109C9.97108 12.8909 10.1479 12.7141 10.366 12.7141H12.0468C12.2649 12.7141 12.4417 12.8909 12.4417 13.109V20.1551ZM11.2064 12.0499C10.3245 12.0499 9.60955 11.335 9.60955 10.4531C9.60955 9.5712 10.3245 8.85627 11.2064 8.85627C12.0883 8.85627 12.8032 9.5712 12.8032 10.4531C12.8032 11.335 12.0883 12.0499 11.2064 12.0499ZM21.2258 20.1869C21.2258 20.3874 21.0633 20.55 20.8628 20.55H19.0591C18.8586 20.55 18.696 20.3874 18.696 20.1869V16.8819C18.696 16.3889 18.8406 14.7214 17.4075 14.7214C16.2959 14.7214 16.0705 15.8627 16.0252 16.3749V20.1869C16.0252 20.3874 15.8627 20.55 15.6621 20.55H13.9177C13.7172 20.55 13.5546 20.3874 13.5546 20.1869V13.0772C13.5546 12.8767 13.7172 12.7141 13.9177 12.7141H15.6621C15.8626 12.7141 16.0252 12.8767 16.0252 13.0772V13.6919C16.4374 13.0733 17.0499 12.5959 18.3542 12.5959C21.2424 12.5959 21.2258 15.2942 21.2258 16.7767V20.1869Z" fill="white"/>
</svg>
