<svg width="30" height="30" viewBox="0 0 30 30" fill="none" xmlns="http://www.w3.org/2000/svg">
<circle cx="15" cy="15" r="15" fill="black"/>
<path d="M15 7.125C10.6512 7.125 7.125 10.6512 7.125 15C7.125 19.3488 10.6512 22.875 15 22.875C19.3488 22.875 22.875 19.3488 22.875 15C22.875 10.6512 19.3488 7.125 15 7.125ZM18.7846 13.0611C18.7898 13.1438 18.7898 13.2299 18.7898 13.3143C18.7898 15.8947 16.8246 18.8672 13.2334 18.8672C12.126 18.8672 11.0994 18.5455 10.2346 17.9918C10.3928 18.0094 10.5439 18.0164 10.7057 18.0164C11.6197 18.0164 12.46 17.707 13.1297 17.1832C12.2719 17.1656 11.5512 16.6031 11.3051 15.8297C11.6057 15.8736 11.8764 15.8736 12.1857 15.7945C11.744 15.7048 11.347 15.4649 11.0622 15.1156C10.7773 14.7664 10.6221 14.3292 10.623 13.8785V13.8539C10.8814 13.9998 11.1855 14.0895 11.5037 14.1018C11.2362 13.9235 11.0169 13.682 10.8651 13.3987C10.7133 13.1154 10.6338 12.799 10.6336 12.4775C10.6336 12.1137 10.7285 11.7814 10.899 11.4932C11.3893 12.0967 12.0011 12.5903 12.6946 12.9419C13.3881 13.2935 14.1478 13.4952 14.9244 13.534C14.6484 12.2068 15.6398 11.1328 16.8316 11.1328C17.3941 11.1328 17.9004 11.3684 18.2572 11.748C18.6984 11.6654 19.1203 11.5002 19.4965 11.2787C19.3506 11.7305 19.0447 12.1119 18.6387 12.3527C19.0324 12.3105 19.4121 12.2016 19.7637 12.0486C19.4982 12.4389 19.166 12.7852 18.7846 13.0611V13.0611Z" fill="white"/>
</svg>
